<mxfile host="app.diagrams.net" agent="Mozilla/5.0 (Windows NT 10.0; Win64; x64) AppleWebKit/537.36 (KHTML, like Gecko) Chrome/136.0.0.0 Safari/537.36" version="27.0.1">
  <diagram name="Trang-1" id="Ueh1SAg65lif8MxNrg38">
    <mxGraphModel dx="3143" dy="2493" grid="1" gridSize="10" guides="1" tooltips="1" connect="1" arrows="1" fold="1" page="1" pageScale="1" pageWidth="827" pageHeight="1169" math="0" shadow="0">
      <root>
        <mxCell id="0" />
        <mxCell id="1" parent="0" />
        <mxCell id="ufRfvAdapd2hMPOQnTXM-3" style="edgeStyle=orthogonalEdgeStyle;rounded=0;orthogonalLoop=1;jettySize=auto;html=1;exitX=0.5;exitY=0;exitDx=0;exitDy=0;exitPerimeter=0;entryX=0;entryY=0.5;entryDx=0;entryDy=0;endArrow=none;startFill=0;curved=1;fontSize=21;" edge="1" parent="1" source="ufRfvAdapd2hMPOQnTXM-1" target="ufRfvAdapd2hMPOQnTXM-2">
          <mxGeometry relative="1" as="geometry" />
        </mxCell>
        <mxCell id="ufRfvAdapd2hMPOQnTXM-13" style="edgeStyle=orthogonalEdgeStyle;rounded=0;orthogonalLoop=1;jettySize=auto;html=1;exitX=0.5;exitY=0.5;exitDx=0;exitDy=0;exitPerimeter=0;entryX=0;entryY=0.5;entryDx=0;entryDy=0;curved=1;endArrow=none;startFill=0;fontSize=21;" edge="1" parent="1" source="ufRfvAdapd2hMPOQnTXM-1" target="ufRfvAdapd2hMPOQnTXM-12">
          <mxGeometry relative="1" as="geometry" />
        </mxCell>
        <mxCell id="ufRfvAdapd2hMPOQnTXM-1" value="Khách hàng" style="shape=umlActor;verticalLabelPosition=bottom;verticalAlign=top;html=1;outlineConnect=0;fontSize=21;" vertex="1" parent="1">
          <mxGeometry x="-150" y="440" width="30" height="60" as="geometry" />
        </mxCell>
        <mxCell id="ufRfvAdapd2hMPOQnTXM-2" value="Thanh toán onl" style="ellipse;whiteSpace=wrap;html=1;fontSize=21;" vertex="1" parent="1">
          <mxGeometry x="340" y="160" width="120" height="80" as="geometry" />
        </mxCell>
        <mxCell id="ufRfvAdapd2hMPOQnTXM-5" style="edgeStyle=orthogonalEdgeStyle;rounded=0;orthogonalLoop=1;jettySize=auto;html=1;exitX=0;exitY=0.5;exitDx=0;exitDy=0;curved=1;endArrow=none;startFill=0;fontSize=21;" edge="1" parent="1" source="ufRfvAdapd2hMPOQnTXM-4" target="ufRfvAdapd2hMPOQnTXM-1">
          <mxGeometry relative="1" as="geometry">
            <Array as="points">
              <mxPoint x="370" y="70" />
              <mxPoint x="-135" y="70" />
            </Array>
          </mxGeometry>
        </mxCell>
        <mxCell id="ufRfvAdapd2hMPOQnTXM-4" value="Lịch sử đặt bàn" style="ellipse;whiteSpace=wrap;html=1;fontSize=21;" vertex="1" parent="1">
          <mxGeometry x="370" y="-10" width="120" height="80" as="geometry" />
        </mxCell>
        <mxCell id="ufRfvAdapd2hMPOQnTXM-7" style="edgeStyle=orthogonalEdgeStyle;rounded=0;orthogonalLoop=1;jettySize=auto;html=1;exitX=0;exitY=0.5;exitDx=0;exitDy=0;entryX=1.018;entryY=0.586;entryDx=0;entryDy=0;dashed=1;entryPerimeter=0;fontSize=21;" edge="1" parent="1" source="ufRfvAdapd2hMPOQnTXM-6" target="ufRfvAdapd2hMPOQnTXM-24">
          <mxGeometry relative="1" as="geometry" />
        </mxCell>
        <mxCell id="ufRfvAdapd2hMPOQnTXM-6" value="Đăng nhập" style="ellipse;whiteSpace=wrap;html=1;fontSize=21;" vertex="1" parent="1">
          <mxGeometry x="560" y="40" width="120" height="80" as="geometry" />
        </mxCell>
        <mxCell id="ufRfvAdapd2hMPOQnTXM-8" value="Chi tiết món ăn" style="ellipse;whiteSpace=wrap;html=1;fontSize=21;" vertex="1" parent="1">
          <mxGeometry x="240" y="300" width="120" height="80" as="geometry" />
        </mxCell>
        <mxCell id="ufRfvAdapd2hMPOQnTXM-9" style="edgeStyle=orthogonalEdgeStyle;rounded=0;orthogonalLoop=1;jettySize=auto;html=1;exitX=0;exitY=0.5;exitDx=0;exitDy=0;entryX=0.5;entryY=0.5;entryDx=0;entryDy=0;entryPerimeter=0;endArrow=none;startFill=0;curved=1;fontSize=21;" edge="1" parent="1" source="ufRfvAdapd2hMPOQnTXM-8" target="ufRfvAdapd2hMPOQnTXM-1">
          <mxGeometry relative="1" as="geometry" />
        </mxCell>
        <mxCell id="ufRfvAdapd2hMPOQnTXM-10" value="Tìm kiếm món ăn" style="ellipse;whiteSpace=wrap;html=1;fontSize=21;" vertex="1" parent="1">
          <mxGeometry x="170" y="410" width="120" height="80" as="geometry" />
        </mxCell>
        <mxCell id="ufRfvAdapd2hMPOQnTXM-11" style="edgeStyle=orthogonalEdgeStyle;rounded=0;orthogonalLoop=1;jettySize=auto;html=1;exitX=0;exitY=0.5;exitDx=0;exitDy=0;entryX=0.5;entryY=0.5;entryDx=0;entryDy=0;entryPerimeter=0;endArrow=none;startFill=0;curved=1;fontSize=21;" edge="1" parent="1" source="ufRfvAdapd2hMPOQnTXM-10" target="ufRfvAdapd2hMPOQnTXM-1">
          <mxGeometry relative="1" as="geometry" />
        </mxCell>
        <mxCell id="ufRfvAdapd2hMPOQnTXM-14" style="edgeStyle=orthogonalEdgeStyle;rounded=0;orthogonalLoop=1;jettySize=auto;html=1;exitX=1;exitY=0.5;exitDx=0;exitDy=0;endArrow=none;startFill=0;curved=1;fontSize=21;" edge="1" parent="1" source="ufRfvAdapd2hMPOQnTXM-12" target="ufRfvAdapd2hMPOQnTXM-2">
          <mxGeometry relative="1" as="geometry" />
        </mxCell>
        <mxCell id="ufRfvAdapd2hMPOQnTXM-12" value="Quản lý giỏ hàng" style="ellipse;whiteSpace=wrap;html=1;fontSize=21;" vertex="1" parent="1">
          <mxGeometry x="180" y="570" width="120" height="80" as="geometry" />
        </mxCell>
        <mxCell id="ufRfvAdapd2hMPOQnTXM-15" value="include" style="text;html=1;align=center;verticalAlign=middle;whiteSpace=wrap;rounded=0;fontSize=21;" vertex="1" parent="1">
          <mxGeometry x="650" y="150" width="60" height="30" as="geometry" />
        </mxCell>
        <mxCell id="ufRfvAdapd2hMPOQnTXM-17" style="edgeStyle=orthogonalEdgeStyle;rounded=0;orthogonalLoop=1;jettySize=auto;html=1;exitX=0;exitY=0.5;exitDx=0;exitDy=0;entryX=1;entryY=0.5;entryDx=0;entryDy=0;dashed=1;fontSize=21;" edge="1" parent="1" source="ufRfvAdapd2hMPOQnTXM-6" target="ufRfvAdapd2hMPOQnTXM-4">
          <mxGeometry relative="1" as="geometry">
            <mxPoint x="570" y="90" as="sourcePoint" />
            <mxPoint x="470" y="210" as="targetPoint" />
          </mxGeometry>
        </mxCell>
        <mxCell id="ufRfvAdapd2hMPOQnTXM-18" value="include" style="text;html=1;align=center;verticalAlign=middle;whiteSpace=wrap;rounded=0;fontSize=21;" vertex="1" parent="1">
          <mxGeometry x="490" width="60" height="30" as="geometry" />
        </mxCell>
        <mxCell id="ufRfvAdapd2hMPOQnTXM-20" style="edgeStyle=orthogonalEdgeStyle;rounded=0;orthogonalLoop=1;jettySize=auto;html=1;exitX=0;exitY=0.5;exitDx=0;exitDy=0;entryX=1;entryY=0.5;entryDx=0;entryDy=0;dashed=1;fontSize=21;" edge="1" parent="1" source="ufRfvAdapd2hMPOQnTXM-19" target="ufRfvAdapd2hMPOQnTXM-6">
          <mxGeometry relative="1" as="geometry" />
        </mxCell>
        <mxCell id="ufRfvAdapd2hMPOQnTXM-19" value="Đăng ký" style="ellipse;whiteSpace=wrap;html=1;fontSize=21;" vertex="1" parent="1">
          <mxGeometry x="770" y="40" width="120" height="80" as="geometry" />
        </mxCell>
        <mxCell id="ufRfvAdapd2hMPOQnTXM-21" value="extend" style="text;html=1;align=center;verticalAlign=middle;whiteSpace=wrap;rounded=0;fontSize=21;" vertex="1" parent="1">
          <mxGeometry x="690" y="50" width="60" height="30" as="geometry" />
        </mxCell>
        <mxCell id="ufRfvAdapd2hMPOQnTXM-23" style="edgeStyle=orthogonalEdgeStyle;rounded=0;orthogonalLoop=1;jettySize=auto;html=1;exitX=0;exitY=0.5;exitDx=0;exitDy=0;curved=1;endArrow=none;startFill=0;fontSize=21;" edge="1" parent="1" source="ufRfvAdapd2hMPOQnTXM-22" target="ufRfvAdapd2hMPOQnTXM-1">
          <mxGeometry relative="1" as="geometry" />
        </mxCell>
        <mxCell id="ufRfvAdapd2hMPOQnTXM-22" value="Xem Thông tin nhà hàng" style="ellipse;whiteSpace=wrap;html=1;fontSize=21;" vertex="1" parent="1">
          <mxGeometry x="-30" y="720" width="120" height="80" as="geometry" />
        </mxCell>
        <mxCell id="ufRfvAdapd2hMPOQnTXM-25" style="edgeStyle=orthogonalEdgeStyle;rounded=0;orthogonalLoop=1;jettySize=auto;html=1;exitX=0;exitY=0.5;exitDx=0;exitDy=0;endArrow=classic;startFill=0;dashed=1;endFill=1;fontSize=21;" edge="1" parent="1" source="ufRfvAdapd2hMPOQnTXM-24" target="ufRfvAdapd2hMPOQnTXM-2">
          <mxGeometry relative="1" as="geometry" />
        </mxCell>
        <mxCell id="ufRfvAdapd2hMPOQnTXM-24" value="Đặt bàn" style="ellipse;whiteSpace=wrap;html=1;fontSize=21;" vertex="1" parent="1">
          <mxGeometry x="530" y="170" width="120" height="80" as="geometry" />
        </mxCell>
        <mxCell id="ufRfvAdapd2hMPOQnTXM-26" value="include" style="text;html=1;align=center;verticalAlign=middle;whiteSpace=wrap;rounded=0;fontSize=21;" vertex="1" parent="1">
          <mxGeometry x="460" y="170" width="60" height="30" as="geometry" />
        </mxCell>
        <mxCell id="ufRfvAdapd2hMPOQnTXM-31" style="edgeStyle=orthogonalEdgeStyle;rounded=0;orthogonalLoop=1;jettySize=auto;html=1;exitX=0.5;exitY=0;exitDx=0;exitDy=0;dashed=1;fontSize=21;" edge="1" parent="1" source="ufRfvAdapd2hMPOQnTXM-36" target="ufRfvAdapd2hMPOQnTXM-12">
          <mxGeometry relative="1" as="geometry" />
        </mxCell>
        <mxCell id="ufRfvAdapd2hMPOQnTXM-27" value="Thêm món ăn" style="ellipse;whiteSpace=wrap;html=1;fontSize=21;" vertex="1" parent="1">
          <mxGeometry x="160" y="750" width="120" height="80" as="geometry" />
        </mxCell>
        <mxCell id="ufRfvAdapd2hMPOQnTXM-32" style="edgeStyle=orthogonalEdgeStyle;rounded=0;orthogonalLoop=1;jettySize=auto;html=1;exitX=0.5;exitY=0;exitDx=0;exitDy=0;dashed=1;fontSize=21;" edge="1" parent="1" source="ufRfvAdapd2hMPOQnTXM-28" target="ufRfvAdapd2hMPOQnTXM-12">
          <mxGeometry relative="1" as="geometry" />
        </mxCell>
        <mxCell id="ufRfvAdapd2hMPOQnTXM-28" value="Xóa món ăn" style="ellipse;whiteSpace=wrap;html=1;fontSize=21;" vertex="1" parent="1">
          <mxGeometry x="310" y="720" width="120" height="80" as="geometry" />
        </mxCell>
        <mxCell id="ufRfvAdapd2hMPOQnTXM-33" style="edgeStyle=orthogonalEdgeStyle;rounded=0;orthogonalLoop=1;jettySize=auto;html=1;exitX=0;exitY=0;exitDx=0;exitDy=0;dashed=1;fontSize=21;" edge="1" parent="1" source="ufRfvAdapd2hMPOQnTXM-30" target="ufRfvAdapd2hMPOQnTXM-12">
          <mxGeometry relative="1" as="geometry" />
        </mxCell>
        <mxCell id="ufRfvAdapd2hMPOQnTXM-30" value="Sửa số lượng món ăn" style="ellipse;whiteSpace=wrap;html=1;fontSize=21;" vertex="1" parent="1">
          <mxGeometry x="414" y="630" width="120" height="80" as="geometry" />
        </mxCell>
        <mxCell id="ufRfvAdapd2hMPOQnTXM-34" value="extend" style="text;html=1;align=center;verticalAlign=middle;whiteSpace=wrap;rounded=0;fontSize=21;" vertex="1" parent="1">
          <mxGeometry x="354" y="610" width="60" height="30" as="geometry" />
        </mxCell>
        <mxCell id="ufRfvAdapd2hMPOQnTXM-35" value="extend" style="text;html=1;align=center;verticalAlign=middle;whiteSpace=wrap;rounded=0;fontSize=21;" vertex="1" parent="1">
          <mxGeometry x="280" y="655" width="60" height="30" as="geometry" />
        </mxCell>
        <mxCell id="ufRfvAdapd2hMPOQnTXM-37" value="" style="edgeStyle=orthogonalEdgeStyle;rounded=0;orthogonalLoop=1;jettySize=auto;html=1;exitX=0.5;exitY=0;exitDx=0;exitDy=0;dashed=1;fontSize=21;" edge="1" parent="1" source="ufRfvAdapd2hMPOQnTXM-27" target="ufRfvAdapd2hMPOQnTXM-36">
          <mxGeometry relative="1" as="geometry">
            <mxPoint x="220" y="750" as="sourcePoint" />
            <mxPoint x="240" y="650" as="targetPoint" />
          </mxGeometry>
        </mxCell>
        <mxCell id="ufRfvAdapd2hMPOQnTXM-36" value="extend" style="text;html=1;align=center;verticalAlign=middle;whiteSpace=wrap;rounded=0;fontSize=21;" vertex="1" parent="1">
          <mxGeometry x="160" y="710" width="60" height="30" as="geometry" />
        </mxCell>
        <mxCell id="ufRfvAdapd2hMPOQnTXM-38" value="Admin" style="shape=umlActor;verticalLabelPosition=bottom;verticalAlign=top;html=1;outlineConnect=0;fontSize=21;" vertex="1" parent="1">
          <mxGeometry x="1830" y="465" width="30" height="60" as="geometry" />
        </mxCell>
        <mxCell id="ufRfvAdapd2hMPOQnTXM-40" style="edgeStyle=orthogonalEdgeStyle;rounded=0;orthogonalLoop=1;jettySize=auto;html=1;exitX=0;exitY=0.5;exitDx=0;exitDy=0;endArrow=none;startFill=0;fontSize=21;" edge="1" parent="1" source="ufRfvAdapd2hMPOQnTXM-39" target="ufRfvAdapd2hMPOQnTXM-38">
          <mxGeometry relative="1" as="geometry" />
        </mxCell>
        <mxCell id="ufRfvAdapd2hMPOQnTXM-39" value="Quản lý Loại món ăn" style="ellipse;whiteSpace=wrap;html=1;fontSize=21;" vertex="1" parent="1">
          <mxGeometry x="1980" y="10" width="120" height="80" as="geometry" />
        </mxCell>
        <mxCell id="ufRfvAdapd2hMPOQnTXM-43" style="edgeStyle=orthogonalEdgeStyle;rounded=0;orthogonalLoop=1;jettySize=auto;html=1;exitX=0;exitY=0.5;exitDx=0;exitDy=0;endArrow=none;startFill=0;fontSize=21;" edge="1" parent="1" source="ufRfvAdapd2hMPOQnTXM-41" target="ufRfvAdapd2hMPOQnTXM-38">
          <mxGeometry relative="1" as="geometry" />
        </mxCell>
        <mxCell id="ufRfvAdapd2hMPOQnTXM-41" value="Quản lý thông tin nhà hàng" style="ellipse;whiteSpace=wrap;html=1;fontSize=21;" vertex="1" parent="1">
          <mxGeometry x="2171" y="235" width="120" height="80" as="geometry" />
        </mxCell>
        <mxCell id="ufRfvAdapd2hMPOQnTXM-45" style="edgeStyle=orthogonalEdgeStyle;rounded=0;orthogonalLoop=1;jettySize=auto;html=1;exitX=0;exitY=0.5;exitDx=0;exitDy=0;endArrow=none;startFill=0;fontSize=21;" edge="1" parent="1" source="ufRfvAdapd2hMPOQnTXM-44" target="ufRfvAdapd2hMPOQnTXM-38">
          <mxGeometry relative="1" as="geometry" />
        </mxCell>
        <mxCell id="ufRfvAdapd2hMPOQnTXM-44" value="Quản lý nhà hàng" style="ellipse;whiteSpace=wrap;html=1;fontSize=21;" vertex="1" parent="1">
          <mxGeometry x="2460" y="430" width="120" height="80" as="geometry" />
        </mxCell>
        <mxCell id="ufRfvAdapd2hMPOQnTXM-47" style="edgeStyle=orthogonalEdgeStyle;rounded=0;orthogonalLoop=1;jettySize=auto;html=1;exitX=0;exitY=0.5;exitDx=0;exitDy=0;endArrow=none;startFill=0;fontSize=21;" edge="1" parent="1" source="ufRfvAdapd2hMPOQnTXM-46" target="ufRfvAdapd2hMPOQnTXM-38">
          <mxGeometry relative="1" as="geometry" />
        </mxCell>
        <mxCell id="ufRfvAdapd2hMPOQnTXM-46" value="Quản lý bàn" style="ellipse;whiteSpace=wrap;html=1;fontSize=21;" vertex="1" parent="1">
          <mxGeometry x="2100" y="570" width="120" height="80" as="geometry" />
        </mxCell>
        <mxCell id="ufRfvAdapd2hMPOQnTXM-49" style="edgeStyle=orthogonalEdgeStyle;rounded=0;orthogonalLoop=1;jettySize=auto;html=1;exitX=0;exitY=0.5;exitDx=0;exitDy=0;endArrow=none;startFill=0;fontSize=21;" edge="1" parent="1" source="ufRfvAdapd2hMPOQnTXM-48" target="ufRfvAdapd2hMPOQnTXM-38">
          <mxGeometry relative="1" as="geometry" />
        </mxCell>
        <mxCell id="ufRfvAdapd2hMPOQnTXM-48" value="Quản lý đơn hàng" style="ellipse;whiteSpace=wrap;html=1;fontSize=21;" vertex="1" parent="1">
          <mxGeometry x="2000" y="800" width="120" height="80" as="geometry" />
        </mxCell>
        <mxCell id="ufRfvAdapd2hMPOQnTXM-51" style="edgeStyle=orthogonalEdgeStyle;rounded=0;orthogonalLoop=1;jettySize=auto;html=1;exitX=0;exitY=0.5;exitDx=0;exitDy=0;endArrow=none;startFill=0;fontSize=21;" edge="1" parent="1" source="ufRfvAdapd2hMPOQnTXM-50" target="ufRfvAdapd2hMPOQnTXM-38">
          <mxGeometry relative="1" as="geometry" />
        </mxCell>
        <mxCell id="ufRfvAdapd2hMPOQnTXM-50" value="Quản lý nhân viên" style="ellipse;whiteSpace=wrap;html=1;fontSize=21;" vertex="1" parent="1">
          <mxGeometry x="1860" y="1050" width="120" height="80" as="geometry" />
        </mxCell>
        <mxCell id="ufRfvAdapd2hMPOQnTXM-55" style="edgeStyle=orthogonalEdgeStyle;rounded=0;orthogonalLoop=1;jettySize=auto;html=1;exitX=0;exitY=0.5;exitDx=0;exitDy=0;dashed=1;endArrow=classic;startFill=0;endFill=1;fontSize=21;" edge="1" parent="1" source="ufRfvAdapd2hMPOQnTXM-52" target="ufRfvAdapd2hMPOQnTXM-39">
          <mxGeometry relative="1" as="geometry" />
        </mxCell>
        <mxCell id="ufRfvAdapd2hMPOQnTXM-52" value="Thêm loại món ăn" style="ellipse;whiteSpace=wrap;html=1;fontSize=21;" vertex="1" parent="1">
          <mxGeometry x="2120" y="-110" width="120" height="80" as="geometry" />
        </mxCell>
        <mxCell id="ufRfvAdapd2hMPOQnTXM-53" value="Sửa loại món ăn" style="ellipse;whiteSpace=wrap;html=1;fontSize=21;" vertex="1" parent="1">
          <mxGeometry x="2240" y="-10" width="120" height="80" as="geometry" />
        </mxCell>
        <mxCell id="ufRfvAdapd2hMPOQnTXM-57" style="edgeStyle=orthogonalEdgeStyle;rounded=0;orthogonalLoop=1;jettySize=auto;html=1;exitX=0;exitY=0.5;exitDx=0;exitDy=0;dashed=1;endArrow=classic;startFill=0;endFill=1;fontSize=21;" edge="1" parent="1" source="ufRfvAdapd2hMPOQnTXM-54" target="ufRfvAdapd2hMPOQnTXM-39">
          <mxGeometry relative="1" as="geometry" />
        </mxCell>
        <mxCell id="ufRfvAdapd2hMPOQnTXM-54" value="Xóa loại món ăn" style="ellipse;whiteSpace=wrap;html=1;fontSize=21;" vertex="1" parent="1">
          <mxGeometry x="2140" y="110" width="120" height="80" as="geometry" />
        </mxCell>
        <mxCell id="ufRfvAdapd2hMPOQnTXM-56" style="edgeStyle=orthogonalEdgeStyle;rounded=0;orthogonalLoop=1;jettySize=auto;html=1;exitX=0;exitY=0.5;exitDx=0;exitDy=0;dashed=1;endArrow=classic;startFill=0;endFill=1;fontSize=21;" edge="1" parent="1" source="ufRfvAdapd2hMPOQnTXM-53" target="ufRfvAdapd2hMPOQnTXM-39">
          <mxGeometry relative="1" as="geometry" />
        </mxCell>
        <mxCell id="ufRfvAdapd2hMPOQnTXM-58" value="extend" style="text;html=1;align=center;verticalAlign=middle;whiteSpace=wrap;rounded=0;fontSize=21;" vertex="1" parent="1">
          <mxGeometry x="2030" y="-40" width="60" height="30" as="geometry" />
        </mxCell>
        <mxCell id="ufRfvAdapd2hMPOQnTXM-59" value="extend" style="text;html=1;align=center;verticalAlign=middle;whiteSpace=wrap;rounded=0;fontSize=21;" vertex="1" parent="1">
          <mxGeometry x="2100" y="20" width="60" height="30" as="geometry" />
        </mxCell>
        <mxCell id="ufRfvAdapd2hMPOQnTXM-60" value="extend" style="text;html=1;align=center;verticalAlign=middle;whiteSpace=wrap;rounded=0;fontSize=21;" vertex="1" parent="1">
          <mxGeometry x="2040" y="120" width="60" height="30" as="geometry" />
        </mxCell>
        <mxCell id="ufRfvAdapd2hMPOQnTXM-64" style="edgeStyle=orthogonalEdgeStyle;rounded=0;orthogonalLoop=1;jettySize=auto;html=1;exitX=0;exitY=0.5;exitDx=0;exitDy=0;dashed=1;fontSize=21;" edge="1" parent="1" source="ufRfvAdapd2hMPOQnTXM-61" target="ufRfvAdapd2hMPOQnTXM-41">
          <mxGeometry relative="1" as="geometry">
            <Array as="points">
              <mxPoint x="2360" y="210" />
              <mxPoint x="2231" y="210" />
            </Array>
          </mxGeometry>
        </mxCell>
        <mxCell id="ufRfvAdapd2hMPOQnTXM-61" value="Thêm thông tin nhà hàng" style="ellipse;whiteSpace=wrap;html=1;fontSize=21;" vertex="1" parent="1">
          <mxGeometry x="2360" y="125" width="120" height="80" as="geometry" />
        </mxCell>
        <mxCell id="ufRfvAdapd2hMPOQnTXM-65" style="edgeStyle=orthogonalEdgeStyle;rounded=0;orthogonalLoop=1;jettySize=auto;html=1;exitX=0;exitY=0.5;exitDx=0;exitDy=0;dashed=1;fontSize=21;" edge="1" parent="1" source="ufRfvAdapd2hMPOQnTXM-62" target="ufRfvAdapd2hMPOQnTXM-41">
          <mxGeometry relative="1" as="geometry" />
        </mxCell>
        <mxCell id="ufRfvAdapd2hMPOQnTXM-62" value="Sửa thông tin nhà hàng" style="ellipse;whiteSpace=wrap;html=1;fontSize=21;" vertex="1" parent="1">
          <mxGeometry x="2430" y="240" width="120" height="80" as="geometry" />
        </mxCell>
        <mxCell id="ufRfvAdapd2hMPOQnTXM-66" style="edgeStyle=orthogonalEdgeStyle;rounded=0;orthogonalLoop=1;jettySize=auto;html=1;exitX=0;exitY=0.5;exitDx=0;exitDy=0;dashed=1;fontSize=21;" edge="1" parent="1" source="ufRfvAdapd2hMPOQnTXM-63" target="ufRfvAdapd2hMPOQnTXM-41">
          <mxGeometry relative="1" as="geometry" />
        </mxCell>
        <mxCell id="ufRfvAdapd2hMPOQnTXM-63" value="Xóa thông tin nhà hàng" style="ellipse;whiteSpace=wrap;html=1;fontSize=21;" vertex="1" parent="1">
          <mxGeometry x="2300" y="330" width="120" height="80" as="geometry" />
        </mxCell>
        <mxCell id="ufRfvAdapd2hMPOQnTXM-67" value="extend" style="text;html=1;align=center;verticalAlign=middle;whiteSpace=wrap;rounded=0;fontSize=21;" vertex="1" parent="1">
          <mxGeometry x="2291" y="185" width="60" height="30" as="geometry" />
        </mxCell>
        <mxCell id="ufRfvAdapd2hMPOQnTXM-68" value="extend" style="text;html=1;align=center;verticalAlign=middle;whiteSpace=wrap;rounded=0;fontSize=21;" vertex="1" parent="1">
          <mxGeometry x="2360" y="250" width="60" height="30" as="geometry" />
        </mxCell>
        <mxCell id="ufRfvAdapd2hMPOQnTXM-69" value="extend" style="text;html=1;align=center;verticalAlign=middle;whiteSpace=wrap;rounded=0;fontSize=21;" vertex="1" parent="1">
          <mxGeometry x="2231" y="340" width="60" height="30" as="geometry" />
        </mxCell>
        <mxCell id="ufRfvAdapd2hMPOQnTXM-73" style="edgeStyle=orthogonalEdgeStyle;rounded=0;orthogonalLoop=1;jettySize=auto;html=1;exitX=0;exitY=0.5;exitDx=0;exitDy=0;dashed=1;fontSize=21;" edge="1" parent="1" source="ufRfvAdapd2hMPOQnTXM-70" target="ufRfvAdapd2hMPOQnTXM-44">
          <mxGeometry relative="1" as="geometry" />
        </mxCell>
        <mxCell id="ufRfvAdapd2hMPOQnTXM-70" value="Thêm nhà hàng" style="ellipse;whiteSpace=wrap;html=1;fontSize=21;" vertex="1" parent="1">
          <mxGeometry x="2610" y="330" width="120" height="80" as="geometry" />
        </mxCell>
        <mxCell id="ufRfvAdapd2hMPOQnTXM-74" style="edgeStyle=orthogonalEdgeStyle;rounded=0;orthogonalLoop=1;jettySize=auto;html=1;exitX=0;exitY=0.5;exitDx=0;exitDy=0;dashed=1;fontSize=21;" edge="1" parent="1" source="ufRfvAdapd2hMPOQnTXM-71" target="ufRfvAdapd2hMPOQnTXM-44">
          <mxGeometry relative="1" as="geometry" />
        </mxCell>
        <mxCell id="ufRfvAdapd2hMPOQnTXM-71" value="Sửa nhà hàng" style="ellipse;whiteSpace=wrap;html=1;fontSize=21;" vertex="1" parent="1">
          <mxGeometry x="2690" y="430" width="120" height="80" as="geometry" />
        </mxCell>
        <mxCell id="ufRfvAdapd2hMPOQnTXM-75" style="edgeStyle=orthogonalEdgeStyle;rounded=0;orthogonalLoop=1;jettySize=auto;html=1;exitX=0;exitY=0.5;exitDx=0;exitDy=0;dashed=1;fontSize=21;" edge="1" parent="1" source="ufRfvAdapd2hMPOQnTXM-72" target="ufRfvAdapd2hMPOQnTXM-44">
          <mxGeometry relative="1" as="geometry" />
        </mxCell>
        <mxCell id="ufRfvAdapd2hMPOQnTXM-72" value="Xóa nhà hàng" style="ellipse;whiteSpace=wrap;html=1;fontSize=21;" vertex="1" parent="1">
          <mxGeometry x="2610" y="545" width="120" height="80" as="geometry" />
        </mxCell>
        <mxCell id="ufRfvAdapd2hMPOQnTXM-76" value="extend" style="text;html=1;align=center;verticalAlign=middle;whiteSpace=wrap;rounded=0;fontSize=21;" vertex="1" parent="1">
          <mxGeometry x="2520" y="340" width="60" height="30" as="geometry" />
        </mxCell>
        <mxCell id="ufRfvAdapd2hMPOQnTXM-77" value="extend" style="text;html=1;align=center;verticalAlign=middle;whiteSpace=wrap;rounded=0;fontSize=21;" vertex="1" parent="1">
          <mxGeometry x="2600" y="440" width="60" height="30" as="geometry" />
        </mxCell>
        <mxCell id="ufRfvAdapd2hMPOQnTXM-78" value="extend" style="text;html=1;align=center;verticalAlign=middle;whiteSpace=wrap;rounded=0;fontSize=21;" vertex="1" parent="1">
          <mxGeometry x="2520" y="555" width="60" height="30" as="geometry" />
        </mxCell>
        <mxCell id="ufRfvAdapd2hMPOQnTXM-92" style="edgeStyle=orthogonalEdgeStyle;rounded=0;orthogonalLoop=1;jettySize=auto;html=1;exitX=0;exitY=0.5;exitDx=0;exitDy=0;dashed=1;fontSize=21;" edge="1" parent="1" source="ufRfvAdapd2hMPOQnTXM-79" target="ufRfvAdapd2hMPOQnTXM-46">
          <mxGeometry relative="1" as="geometry" />
        </mxCell>
        <mxCell id="ufRfvAdapd2hMPOQnTXM-79" value="Thêm bàn" style="ellipse;whiteSpace=wrap;html=1;fontSize=21;" vertex="1" parent="1">
          <mxGeometry x="2260" y="500" width="120" height="80" as="geometry" />
        </mxCell>
        <mxCell id="ufRfvAdapd2hMPOQnTXM-93" style="edgeStyle=orthogonalEdgeStyle;rounded=0;orthogonalLoop=1;jettySize=auto;html=1;exitX=0;exitY=0.5;exitDx=0;exitDy=0;dashed=1;fontSize=21;" edge="1" parent="1" source="ufRfvAdapd2hMPOQnTXM-80" target="ufRfvAdapd2hMPOQnTXM-46">
          <mxGeometry relative="1" as="geometry" />
        </mxCell>
        <mxCell id="ufRfvAdapd2hMPOQnTXM-80" value="Sửa bàn" style="ellipse;whiteSpace=wrap;html=1;fontSize=21;" vertex="1" parent="1">
          <mxGeometry x="2351" y="600" width="120" height="80" as="geometry" />
        </mxCell>
        <mxCell id="ufRfvAdapd2hMPOQnTXM-94" style="edgeStyle=orthogonalEdgeStyle;rounded=0;orthogonalLoop=1;jettySize=auto;html=1;exitX=0;exitY=0.5;exitDx=0;exitDy=0;dashed=1;fontSize=21;" edge="1" parent="1" source="ufRfvAdapd2hMPOQnTXM-81" target="ufRfvAdapd2hMPOQnTXM-46">
          <mxGeometry relative="1" as="geometry" />
        </mxCell>
        <mxCell id="ufRfvAdapd2hMPOQnTXM-81" value="Xóa bàn" style="ellipse;whiteSpace=wrap;html=1;fontSize=21;" vertex="1" parent="1">
          <mxGeometry x="2240" y="670" width="120" height="80" as="geometry" />
        </mxCell>
        <mxCell id="ufRfvAdapd2hMPOQnTXM-85" style="edgeStyle=orthogonalEdgeStyle;rounded=0;orthogonalLoop=1;jettySize=auto;html=1;exitX=0;exitY=0.5;exitDx=0;exitDy=0;dashed=1;fontSize=21;" edge="1" parent="1" source="ufRfvAdapd2hMPOQnTXM-82" target="ufRfvAdapd2hMPOQnTXM-48">
          <mxGeometry relative="1" as="geometry" />
        </mxCell>
        <mxCell id="ufRfvAdapd2hMPOQnTXM-82" value="Sửa trang thái đơn hàng" style="ellipse;whiteSpace=wrap;html=1;fontSize=21;" vertex="1" parent="1">
          <mxGeometry x="2300" y="760" width="120" height="80" as="geometry" />
        </mxCell>
        <mxCell id="ufRfvAdapd2hMPOQnTXM-86" style="edgeStyle=orthogonalEdgeStyle;rounded=0;orthogonalLoop=1;jettySize=auto;html=1;exitX=0;exitY=0.5;exitDx=0;exitDy=0;dashed=1;fontSize=21;" edge="1" parent="1" source="ufRfvAdapd2hMPOQnTXM-83" target="ufRfvAdapd2hMPOQnTXM-48">
          <mxGeometry relative="1" as="geometry" />
        </mxCell>
        <mxCell id="ufRfvAdapd2hMPOQnTXM-83" value="Sửa đơn hàng" style="ellipse;whiteSpace=wrap;html=1;fontSize=21;" vertex="1" parent="1">
          <mxGeometry x="2201" y="860" width="120" height="80" as="geometry" />
        </mxCell>
        <mxCell id="ufRfvAdapd2hMPOQnTXM-87" style="edgeStyle=orthogonalEdgeStyle;rounded=0;orthogonalLoop=1;jettySize=auto;html=1;exitX=0;exitY=0.5;exitDx=0;exitDy=0;dashed=1;fontSize=21;" edge="1" parent="1" source="ufRfvAdapd2hMPOQnTXM-84" target="ufRfvAdapd2hMPOQnTXM-48">
          <mxGeometry relative="1" as="geometry" />
        </mxCell>
        <mxCell id="ufRfvAdapd2hMPOQnTXM-84" value="Xóa đơn hàng" style="ellipse;whiteSpace=wrap;html=1;fontSize=21;" vertex="1" parent="1">
          <mxGeometry x="2100" y="930" width="120" height="80" as="geometry" />
        </mxCell>
        <mxCell id="ufRfvAdapd2hMPOQnTXM-88" value="extend" style="text;html=1;align=center;verticalAlign=middle;whiteSpace=wrap;rounded=0;fontSize=21;" vertex="1" parent="1">
          <mxGeometry x="2141" y="800" width="60" height="30" as="geometry" />
        </mxCell>
        <mxCell id="ufRfvAdapd2hMPOQnTXM-89" value="extend" style="text;html=1;align=center;verticalAlign=middle;whiteSpace=wrap;rounded=0;fontSize=21;" vertex="1" parent="1">
          <mxGeometry x="2150" y="870" width="60" height="30" as="geometry" />
        </mxCell>
        <mxCell id="ufRfvAdapd2hMPOQnTXM-90" value="extend" style="text;html=1;align=center;verticalAlign=middle;whiteSpace=wrap;rounded=0;fontSize=21;" vertex="1" parent="1">
          <mxGeometry x="2050" y="940" width="60" height="30" as="geometry" />
        </mxCell>
        <mxCell id="ufRfvAdapd2hMPOQnTXM-95" value="extend" style="text;html=1;align=center;verticalAlign=middle;whiteSpace=wrap;rounded=0;fontSize=21;" vertex="1" parent="1">
          <mxGeometry x="2201" y="515" width="60" height="30" as="geometry" />
        </mxCell>
        <mxCell id="ufRfvAdapd2hMPOQnTXM-96" value="extend" style="text;html=1;align=center;verticalAlign=middle;whiteSpace=wrap;rounded=0;fontSize=21;" vertex="1" parent="1">
          <mxGeometry x="2240" y="580" width="60" height="30" as="geometry" />
        </mxCell>
        <mxCell id="ufRfvAdapd2hMPOQnTXM-97" value="extend" style="text;html=1;align=center;verticalAlign=middle;whiteSpace=wrap;rounded=0;fontSize=21;" vertex="1" parent="1">
          <mxGeometry x="2160" y="680" width="60" height="30" as="geometry" />
        </mxCell>
        <mxCell id="ufRfvAdapd2hMPOQnTXM-104" style="edgeStyle=orthogonalEdgeStyle;rounded=0;orthogonalLoop=1;jettySize=auto;html=1;exitX=0;exitY=0.5;exitDx=0;exitDy=0;dashed=1;fontSize=21;" edge="1" parent="1" source="ufRfvAdapd2hMPOQnTXM-98" target="ufRfvAdapd2hMPOQnTXM-50">
          <mxGeometry relative="1" as="geometry" />
        </mxCell>
        <mxCell id="ufRfvAdapd2hMPOQnTXM-98" value="Thêm nhân viên" style="ellipse;whiteSpace=wrap;html=1;fontSize=21;" vertex="1" parent="1">
          <mxGeometry x="2080" y="1089" width="120" height="80" as="geometry" />
        </mxCell>
        <mxCell id="ufRfvAdapd2hMPOQnTXM-103" style="edgeStyle=orthogonalEdgeStyle;rounded=0;orthogonalLoop=1;jettySize=auto;html=1;exitX=0.5;exitY=0;exitDx=0;exitDy=0;entryX=0.5;entryY=1;entryDx=0;entryDy=0;dashed=1;fontSize=21;" edge="1" parent="1" source="ufRfvAdapd2hMPOQnTXM-99" target="ufRfvAdapd2hMPOQnTXM-50">
          <mxGeometry relative="1" as="geometry" />
        </mxCell>
        <mxCell id="ufRfvAdapd2hMPOQnTXM-99" value="Sửa nhân viên" style="ellipse;whiteSpace=wrap;html=1;fontSize=21;" vertex="1" parent="1">
          <mxGeometry x="1980" y="1200" width="120" height="80" as="geometry" />
        </mxCell>
        <mxCell id="ufRfvAdapd2hMPOQnTXM-102" style="edgeStyle=orthogonalEdgeStyle;rounded=0;orthogonalLoop=1;jettySize=auto;html=1;exitX=1;exitY=0.5;exitDx=0;exitDy=0;entryX=0.5;entryY=1;entryDx=0;entryDy=0;dashed=1;fontSize=21;" edge="1" parent="1" source="ufRfvAdapd2hMPOQnTXM-100" target="ufRfvAdapd2hMPOQnTXM-50">
          <mxGeometry relative="1" as="geometry" />
        </mxCell>
        <mxCell id="ufRfvAdapd2hMPOQnTXM-100" value="Xóa nhân viên" style="ellipse;whiteSpace=wrap;html=1;fontSize=21;" vertex="1" parent="1">
          <mxGeometry x="1750" y="1190" width="120" height="80" as="geometry" />
        </mxCell>
        <mxCell id="ufRfvAdapd2hMPOQnTXM-105" value="extend" style="text;html=1;align=center;verticalAlign=middle;whiteSpace=wrap;rounded=0;fontSize=21;" vertex="1" parent="1">
          <mxGeometry x="1980" y="1059" width="60" height="30" as="geometry" />
        </mxCell>
        <mxCell id="ufRfvAdapd2hMPOQnTXM-106" value="extend" style="text;html=1;align=center;verticalAlign=middle;whiteSpace=wrap;rounded=0;fontSize=21;" vertex="1" parent="1">
          <mxGeometry x="1920" y="1139" width="60" height="30" as="geometry" />
        </mxCell>
        <mxCell id="ufRfvAdapd2hMPOQnTXM-107" value="extend" style="text;html=1;align=center;verticalAlign=middle;whiteSpace=wrap;rounded=0;fontSize=21;" vertex="1" parent="1">
          <mxGeometry x="1850" y="1149" width="60" height="30" as="geometry" />
        </mxCell>
      </root>
    </mxGraphModel>
  </diagram>
</mxfile>
